52494646d07d60074156=avi
424d8240090000000000=bmp
424d8e1b030000000000=bmp
424d=bmp
49545346030000006000=chm
cafebabe0000002e0041=class
48544d4c207b0d0a0942=css
CFAD12FEC5FD746F=dbx
504b0304140006000800=docx
41433130313500000000=dwg
46726f6d3a203d3f6762=eml
4d5a9000030000000400=exe
464c5601050000000900=flv
47494638396126026f01=gif
1f8b0800000000000000=gz
3c21646f637479706520=htm
3c21444f435459504520=html
235468697320636f6e66=ini
504b03040a0000000000=jar
7061636b616765207765=java
ffd8ffe000104a464946=jpg
696b2e71623d696b2e71=js
3c25402070616765206c=jsp
5374616E64617264204A=mdb
4d616e69666573742d56=mf
4d546864000000060001=mid
6D6F6F76=mov
49443303000000002176=mp3
00000020667479706973=mp4
00000020667479706=mp4
000001ba210001000180=mpg
04000000010000001300=mxp
255044462d312e350d0a=pdf
89504e470d0a1a0a0000=png
6c6f67346a2e726f6f74=properties
252150532D41646F6265=ps
38425053000100000000=psd
2142444E=pst
E3828596=pwl
AC9EBD8F=qdf
2E7261FD=ram
526172211a0700cf9073=rar
2e524d46000000120001=rmvb
7b5c727466315c616e73=rtf
494e5345525420494e54=sql
49492a00227105008037=tif
6431303a637265617465=torrent
52494646e27807005741=wav
3026b2758e66cf11a6d9=wmv
FF575043=wpd
d0cf11e0a1b11ae10000=wps
3c3f786d6c2076657273=xml
504b0304140000000800=zip
